# xmcd CD database file
#
# Track frame offsets:
#	150
#	13240
#	23485
#	38297
#	51187
#	62287
#	70552
#	86425
#	97540
#	110167
#	120165
#	132845
#	146465
#	162802
#	176015
#	187357
#
# Disc length: 2656 seconds
#
# Revision: 2
# Processed by: cddbd v1.5.1PL2 Copyright (c) Steve Scherf et al.
# Submitted via: CDex 1.70beta2
#
DISCID=bf0a5e10
DTITLE=Slim Whitman - 16 Greatest Love Songs
DYEAR=1997
DGENRE=Country
TTITLE0=Red Sails in the Sunset
TTITLE1=Any Time
TTITLE2=Mockingbird Hill
TTITLE3=Release Me
TTITLE4=The Wayward Wind
TTITLE5=Have You Even Been Lonely
TTITLE6=Down in the Valley
TTITLE7=Singin' the Blues
TTITLE8=Half as Much
TTITLE9=Cara Mia
TTITLE10=Tennessee Waltz
TTITLE11=You Are My Sunshine
TTITLE12=The Three Bells
TTITLE13=Till I Waltz Again With You
TTITLE14=It Is No Secret
TTITLE15=Now Is the Hour
EXTD=YEAR: 1997
EXTT0=
EXTT1=
EXTT2=
EXTT3=
EXTT4=
EXTT5=
EXTT6=
EXTT7=
EXTT8=
EXTT9=
EXTT10=
EXTT11=
EXTT12=
EXTT13=
EXTT14=
EXTT15=
PLAYORDER=
